<?xml version="1.0" standalone="no"?>
<!DOCTYPE svg PUBLIC "-//W3C//DTD SVG 20010904//EN"
 "http://www.w3.org/TR/2001/REC-SVG-20010904/DTD/svg10.dtd">
<svg version="1.0" xmlns="http://www.w3.org/2000/svg"
 width="260.000000pt" height="260.000000pt" viewBox="0 0 260.000000 260.000000"
 preserveAspectRatio="xMidYMid meet">
<metadata>
Created by potrace 1.14, written by Peter Selinger 2001-2017
</metadata>
<g transform="translate(0.000000,260.000000) scale(0.100000,-0.100000)"
fill="#000000" stroke="none">
<path d="M1270 2571 c-14 -15 -52 -57 -85 -93 -120 -129 -186 -205 -334 -383
-81 -98 -341 -464 -341 -481 0 -2 -12 -23 -26 -46 -39 -61 -107 -203 -137
-283 -67 -181 -75 -288 -37 -475 82 -403 410 -723 810 -793 84 -14 286 -16
360 -2 417 76 753 421 820 840 33 205 2 354 -126 609 -64 126 -227 379 -320
496 -7 8 -52 65 -100 125 -81 102 -168 207 -204 245 -8 9 -52 57 -96 106 -107
117 -152 164 -156 163 -2 0 -14 -13 -28 -28z m-200 -1141 c43 -22 88 -62 114
-103 35 -52 41 -115 41 -377 l-1 -255 -77 -3 -77 -3 0 116 0 115 -87 1 c-87 1
-136 -1 -141 -5 -1 -2 -2 -53 -3 -114 l0 -112 -74 0 c-49 0 -74 4 -77 13 -5
15 0 527 5 547 23 92 104 175 192 197 57 14 139 7 185 -17z m675 14 c140 -38
206 -186 142 -316 l-26 -53 26 -53 c18 -36 26 -69 26 -100 -2 -90 -63 -182
-143 -216 -48 -20 -389 -23 -391 -4 -6 81 -2 745 5 749 18 13 310 8 361 -7z"/>
<path d="M913 1295 c-52 -22 -70 -60 -72 -146 l-1 -76 116 0 116 1 -4 83 c-3
73 -6 86 -29 108 -33 34 -87 46 -126 30z"/>
<path d="M1535 1301 c-3 -2 -5 -37 -5 -78 l0 -73 90 0 c85 0 92 2 115 26 14
15 25 35 25 45 0 31 -22 68 -44 75 -24 8 -174 12 -181 5z"/>
<path d="M1530 921 l0 -77 88 0 c92 1 112 8 131 43 16 32 14 57 -9 83 -19 22
-30 24 -115 26 l-95 2 0 -77z"/>
</g>
</svg>
